HIERARCHY
ROOT pelvis
{
  OFFSET 0 100 0
  CHANNELS 6 Xposition Yposition Zposition Zrotation Xrotation Yrotation
  JOINT pelvis_right_femur
  {
    OFFSET -10.78128 -3.44521 -0.5502486
    CHANNELS 3 Zrotation Xrotation Yrotation
    JOINT right_femur_tibia
    {
      OFFSET -0.8047443 -44.0398 -0.1307829
      CHANNELS 3 Zrotation Xrotation Yrotation
      JOINT right_tibia_foot
      {
        OFFSET 3.006224 -47.83518 -5
        CHANNELS 3 Zrotation Xrotation Yrotation
        End Site
        {
          OFFSET 0 -5 15
        }
      }
    }
  }
  JOINT pelvis_left_femur
  {
    OFFSET 10.78128 -3.44521 -0.5502486
    CHANNELS 3 Zrotation Xrotation Yrotation
    JOINT left_femur_tibia
    {
      OFFSET 0.8047443 -44.0398 -0.1307829
      CHANNELS 3 Zrotation Xrotation Yrotation
      JOINT left_tibia_foot
      {
        OFFSET -4.370144 -48.10324 -4.275266
        CHANNELS 3 Zrotation Xrotation Yrotation
        End Site
        {
          OFFSET 0 -5 15
        }
      }
    }
  }
  JOINT pelvis_spine1
  {
    OFFSET 0 6.468898 -3.129235
    CHANNELS 3 Zrotation Xrotation Yrotation
    JOINT spine1
    {
      OFFSET 0 23.15396 4.99043
      CHANNELS 3 Zrotation Xrotation Yrotation
      JOINT spine2
      {
        OFFSET 0 20.79997 -5.064912
        CHANNELS 3 Zrotation Xrotation Yrotation
        JOINT neck
        {
          OFFSET 0 14.38658 9.616178
          CHANNELS 3 Zrotation Xrotation Yrotation
          End Site
          {
            OFFSET 0 20 0
          }
        }
      }
      JOINT right_manubrium
      {
        OFFSET -5.722621 16.35077 3.967754
        CHANNELS 3 Zrotation Xrotation Yrotation
        JOINT right_clavicle
        {
          OFFSET -13.16364 1.694482 -4.693211
          CHANNELS 3 Zrotation Xrotation Yrotation
          JOINT right_humerus
          {
            OFFSET -28.5034 -0.3100689 -2.792744
            CHANNELS 3 Zrotation Xrotation Yrotation
            JOINT right_radius
            {
              OFFSET -25.15693 0.02248979 -1.271978
              CHANNELS 3 Zrotation Xrotation Yrotation
              End Site
              {
                OFFSET -15 0 0
              }
            }
          }
        }
      }
      JOINT left_manubrium
      {
        OFFSET 5.722621 16.35077 3.967754
        CHANNELS 3 Zrotation Xrotation Yrotation
        JOINT left_clavicle
        {
          OFFSET 13.16364 1.694482 -4.693211
          CHANNELS 3 Zrotation Xrotation Yrotation
          JOINT left_humerus
          {
            OFFSET 29.39168 -1.063119 -2.237045
            CHANNELS 3 Zrotation Xrotation Yrotation
            JOINT left_radius
            {
              OFFSET 24.59957 -0.9528479 0.9047498
              CHANNELS 3 Zrotation Xrotation Yrotation
              End Site
              {
                OFFSET 15 -0 -0
              }
            }
          }
        }
      }
    }
  }
}
MOTION
Frames: 15
Frame Time: 0.0416666666667
0 103.5113 0 -0.09903185 -1.004044 -0.1634329 0.3178355 -10.29335 11.12628 -0 32.15839 -0 -1.454172 -13.02054 -1.661548 -4.990451 4.093209 -19.38708 -0 11.37944 -0 12.14605 -16.85216 22.82038 -0.9451046 -8.328092 7.077865 -2.217295 14.4263 -6.435362 4.025758 21.97788 4.514119 1.663361 -24.36788 11.0436 12.38771 -21.42946 11.90642 83.82909 36.86153 -20.31462 -0 0 14.95988 -15.55413 8.511913 11.07875 12.54641 -26.77575 -1.42695 -96.59152 17.32824 17.05479 -0 0 0.8366492 -5.115107 26.66045 3.268423
0.5323021 103.4571 0.8543947 -0.105459 -1.038112 -0.4305168 0.5690097 -13.38084 10.67544 -0 37.30619 -0 -1.256807 -12.07284 -2.968432 -5.231427 4.922792 -19.0048 -0 10.88271 -0 11.78077 -17.38014 22.47499 -1.307597 -7.884895 6.71874 -2.130087 14.53707 -6.694008 4.024215 21.84691 4.645437 1.881875 -24.60429 11.04916 12.44385 -21.60642 11.67835 83.23266 36.34615 -19.70473 -0 0 15.43501 -15.71741 8.174376 11.17977 12.25065 -26.36573 -1.767931 -96.51682 18.12381 17.44484 0 0 -0.1115229 -4.787012 25.9299 3.637036
0.9399072 103.439 1.70485 -0.1090895 -1.053601 -0.5538193 0.9336931 -16.5557 9.993884 -0 40.88272 -0 -1.30501 -11.6278 -4.190238 -5.358234 5.801974 -18.63472 -0 10.24585 -0 11.29681 -17.86338 22.09841 -1.771974 -7.259748 6.428035 -2.093875 14.73407 -6.949727 4.069239 21.64796 4.735505 2.147214 -24.84296 11.0052 12.44812 -21.69887 11.39606 82.81542 35.80675 -19.20994 -0 0 15.89513 -15.92427 7.859098 11.29841 11.92819 -25.86314 -2.09174 -96.54076 18.98915 17.88799 0 0 -1.170647 -4.190762 25.35519 3.96138
1.348621 103.5707 2.952045 -0.1154937 -1.082583 -0.7845682 1.459915 -19.41805 8.957167 -0 42.74847 -0 -1.432691 -11.091 -5.092772 -5.472222 7.008017 -18.18749 -0 9.481266 -0 10.67009 -18.29725 21.6615 -2.169205 -6.610623 6.14482 -1.805087 14.60391 -7.313359 3.959866 21.43249 4.946823 2.339671 -25.26402 10.99745 12.34297 -21.74893 11.17635 82.50182 35.31147 -18.80355 -0 0 16.16098 -16.08995 7.604432 11.35037 11.99971 -25.60916 -2.546488 -96.12305 20.1932 17.82971 0 0 -2.758586 -2.997783 25.20775 4.084515
1.737091 103.6959 4.311807 -0.1176286 -1.086587 -0.8219746 2.052857 -22.05593 7.948574 -0 41.93809 -0 -1.505976 -10.25212 -5.244904 -5.537063 8.284107 -17.71506 -0 8.628293 -0 9.979716 -18.8036 21.13317 -2.514822 -5.710118 5.945835 -1.416475 14.49343 -7.624954 3.889563 21.09728 5.169268 2.558111 -25.83602 11.04075 12.08948 -21.52007 11.01901 82.52684 34.8895 -18.75292 -0 0 16.07387 -16.14529 7.440361 11.28017 11.99973 -25.2486 -3.089291 -96.13486 21.26885 17.65721 0 0 -4.631075 -1.718089 25.08966 4.132311
2.027121 103.6356 5.808191 -0.1154506 -1.066561 -0.672537 2.637971 -24.32237 7.050666 -0 38.83494 -0 -1.556555 -9.038102 -4.792112 -5.529748 9.636129 -17.19658 -0 7.844718 -0 9.290119 -19.49727 20.55123 -2.812766 -4.753832 5.921811 -1.103733 14.2047 -7.744475 3.970919 20.71855 5.340063 2.86209 -26.4766 11.15178 11.73633 -21.16221 10.9484 82.80817 34.54736 -18.84914 -0 0 15.78452 -16.13001 7.356291 11.14829 11.93026 -25.10202 -3.504376 -96.16957 22.27175 17.3189 0 0 -6.588041 -0.511611 24.90608 4.075934
2.340652 103.3211 7.633154 -0.1131293 -1.045326 -0.5146542 3.029452 -26.05676 6.143636 -0 33.93419 -0 -1.644139 -7.575373 -4.085915 -5.660092 11.0382 -16.56266 -0 7.200336 -0 8.592192 -20.38652 19.92407 -3.058835 -3.70929 5.986476 -0.8211057 13.90179 -7.771573 4.124803 20.30758 5.440127 3.215105 -27.09288 11.2039 11.26455 -20.75032 10.8985 83.20072 34.29122 -19.07703 -0 0 15.24546 -16.05829 7.340391 10.91872 11.88987 -25.03887 -3.768528 -96.20221 23.19101 16.93521 0 0 -8.547245 0.625405 24.66251 3.934697
2.6641 103.0794 9.668555 -0.1134912 -1.03903 -0.4751372 3.086776 -27.21191 5.065837 -0 27.7873 -0 -1.841913 -5.990135 -3.265602 -5.702167 12.58644 -15.75781 -0 6.578524 -0 7.762177 -21.40588 19.05031 -3.115054 -2.517125 6.048986 -0.501827 13.46538 -7.819766 4.146699 19.9221 5.587013 3.511172 -27.74613 11.19113 10.70555 -20.29725 10.88212 83.5954 34.09344 -19.4141 -0 0 14.46381 -15.97076 7.379892 10.60148 11.92473 -25.29374 -3.955983 -96.22004 24.05552 16.2628 0 0 -10.7444 1.818968 24.46486 3.723861
2.864006 102.6219 12.01443 -0.1118999 -1.02172 -0.3493115 3.189207 -28.21266 4.191579 -0 21.73156 -0 -2.281815 -4.519305 -2.502178 -5.733158 14.17932 -15.07502 -0 6.44025 -0 6.857428 -22.42948 17.92999 -3.035124 -1.307068 6.172597 -0.3411572 12.89698 -7.755723 4.134893 19.62328 5.720383 3.786634 -28.3177 11.12436 10.01859 -19.98861 10.9524 83.95586 33.98585 -19.56808 -0 0 13.82556 -15.9525 7.49801 10.31091 11.84652 -25.57994 -4.133804 -96.15749 24.83464 15.71153 0 0 -12.59003 2.876755 24.2078 3.559154
3.192352 102.0043 14.76496 -0.1098568 -1.002238 -0.2060389 3.529598 -28.84032 3.282395 -0 16.13196 -0 -2.731599 -3.720549 -2.156048 -5.579966 15.77398 -14.65162 -0 6.77927 -0 5.812113 -23.35711 16.50511 -2.955413 -0.2995252 6.265992 -0.02740919 12.52428 -7.717099 4.190273 19.50386 5.787738 4.088499 -28.76314 11.03036 9.318618 -19.6036 11.16085 84.50507 33.9108 -19.76586 -0 0 13.14569 -15.83049 7.64782 9.999296 11.5776 -25.39641 -4.812296 -96.0909 25.5145 14.9935 0 0 -14.13141 3.794666 23.9027 3.456525
3.335008 101.3371 17.90721 -0.09666105 -0.9183995 0.4443475 3.881591 -29.20446 2.568042 -0 12.44077 -0 -3.416894 -3.218842 -2.11367 -5.708004 17.3812 -13.78653 -0 7.64275 -0 4.640049 -24.07107 15.06083 -2.841502 0.5253441 6.124521 0.1087288 12.01939 -7.867938 4.1816 19.25145 5.924549 4.39992 -29.19249 10.92668 8.675948 -18.91913 11.24152 85.39686 33.81282 -20.30549 -0 0 12.26834 -15.58976 7.827693 9.615715 11.05182 -25.38246 -5.477859 -95.85408 26.14371 14.43231 0 0 -14.89557 4.49885 23.54323 3.550164
3.406978 100.6608 21.4819 -0.07695715 -0.7879793 1.461155 4.01965 -29.06209 2.084865 -0 11.25299 -0 -4.36935 -2.691977 -2.246479 -5.495134 18.7369 -13.05808 -0 9.140387 -0 3.161103 -24.27174 13.35683 -2.562903 1.406427 5.824088 0.2908796 11.55464 -8.167785 4.043016 19.25497 6.087964 4.660738 -29.53802 10.72841 8.155269 -18.5083 11.22002 86.09179 33.78467 -20.6499 -0 0 11.37515 -15.37894 8.035522 9.353616 10.3674 -25.33958 -6.068653 -95.64753 26.69001 14.17393 0 0 -15.07066 4.938864 23.14249 3.824019
3.511913 100.1163 25.82983 -0.06457914 -0.6965499 2.173058 4.412242 -28.106 1.872682 -0 12.47415 -0 -5.483206 -2.216019 -2.545529 -5.111891 19.64207 -12.66217 -0 11.96654 -0 1.326482 -23.54857 11.44339 -2.262853 1.660038 5.412038 0.4352872 11.13535 -8.522091 3.905945 19.23601 6.183323 4.881096 -29.73884 10.4336 7.785479 -18.06861 11.14638 86.71938 33.80375 -21.01396 -0 0 10.413 -15.20005 8.290515 9.181562 9.572103 -24.95958 -6.53705 -95.60251 27.14508 14.48541 0 0 -14.60173 5.085695 22.70461 4.290464
3.558474 100.0338 30.57507 -0.05086583 -0.5876166 3.022838 4.52077 -27.21203 1.690881 -0 15.08733 -0 -6.735343 -1.952181 -3.025938 -4.950105 19.98963 -11.86032 -0 16.38288 -0 -0.6931006 -21.4578 9.640086 -1.927041 1.834968 5.008438 0.5447083 10.79145 -8.817642 3.730404 19.23795 6.264185 5.046729 -29.78704 10.08905 7.635089 -17.64639 11.16493 87.265 33.87686 -21.28565 -0 0 9.435371 -15.06521 8.5954 9.115422 8.636737 -24.44899 -6.928553 -95.63184 27.48505 15.19286 0 0 -13.58862 4.997289 22.20177 4.912038
3.636663 100.3236 35.8525 -0.0448824 -0.5337328 3.442549 4.547128 -25.90334 1.675599 -0 17.83838 -0 -7.888639 -2.438395 -3.551367 -5.037667 19.23346 -10.88942 -0 23.09564 -0 -2.745249 -17.69047 8.04349 -1.45612 1.467605 4.624907 0.6466087 10.43434 -9.078422 3.429234 19.19601 6.477455 5.1571 -29.75544 9.814729 7.448081 -17.25147 11.23308 87.71911 34.01302 -21.45747 -0 0 8.587807 -15.01299 8.956215 9.178801 7.73414 -23.54175 -7.2418 -95.85139 27.66656 16.3955 0 0 -12.25343 4.747237 21.63524 5.581002
